<?xml version="1.0" encoding="UTF-8" standalone="no"?>
<!-- Created with Inkscape (http://www.inkscape.org/) -->

<svg
   width="48"
   height="48"
   viewBox="0 0 12.7 12.7"
   version="1.1"
   id="svg1"
   inkscape:version="1.3.2 (091e20ef0f, 2023-11-25)"
   sodipodi:docname="mos-icon.svg"
   xmlns:inkscape="http://www.inkscape.org/namespaces/inkscape"
   xmlns:sodipodi="http://sodipodi.sourceforge.net/DTD/sodipodi-0.dtd"
   xmlns="http://www.w3.org/2000/svg"
   xmlns:svg="http://www.w3.org/2000/svg">
  <sodipodi:namedview
     id="namedview1"
     pagecolor="#505050"
     bordercolor="#eeeeee"
     borderopacity="1"
     inkscape:showpageshadow="0"
     inkscape:pageopacity="0"
     inkscape:pagecheckerboard="0"
     inkscape:deskcolor="#d1d1d1"
     inkscape:document-units="mm"
     inkscape:zoom="16.591246"
     inkscape:cx="13.260005"
     inkscape:cy="20.854371"
     inkscape:window-width="2560"
     inkscape:window-height="1368"
     inkscape:window-x="0"
     inkscape:window-y="0"
     inkscape:window-maximized="1"
     inkscape:current-layer="layer1" />
  <defs
     id="defs1">
    <clipPath
       id="clip-mos-logo-1">
      <rect
         width="1024"
         height="1024"
         id="rect2"
         x="0"
         y="0" />
    </clipPath>
    <linearGradient
       id="linear-gradient"
       x1="491.13823"
       x2="245.56799"
       y2="491.14048"
       gradientUnits="userSpaceOnUse"
       gradientTransform="scale(0.85112292,1.1749184)"
       y1="0">
      <stop
         offset="0"
         stop-color="#bf4797"
         id="stop1" />
      <stop
         offset="1"
         stop-color="#2f96b4"
         id="stop2" />
    </linearGradient>
  </defs>
  <g
     inkscape:label="Ebene 1"
     inkscape:groupmode="layer"
     id="layer1">
    <g
       id="mos-logo-1"
       clip-path="url(#clip-mos-logo-1)"
       transform="matrix(0.02109147,0,0,0.02109147,-4.5385706,-4.4388147)">
      <g
         id="Gruppe_1137"
         data-name="Gruppe 1137"
         transform="translate(104.999,324)">
        <g
           id="Gruppe_895"
           data-name="Gruppe 895"
           transform="translate(198,-101)">
          <path
             id="Pfad_41"
             data-name="Pfad 41"
             d="M 387.4,0.153 386.94,0.1 c -0.36,0 -0.7,-0.1 -1.047,-0.1 -0.482,0 -0.928,0.122 -1.405,0.143 a 31.854,31.854 0 0 0 -20.782,7.5 L 209.033,139 54.368,7.647 A 31.873,31.873 0 0 0 33.575,0.143 C 33.1,0.143 32.652,0 32.17,0 31.81,0 31.47,0.093 31.123,0.1 L 30.677,0.149 A 32.085,32.085 0 0 0 0,32.168 v 362.317 a 17.283,17.283 0 0 0 0.441,4.145 c 6.693,99.241 97.494,178.142 208.281,178.285 v 0.135 h 0.153 c 2.621,0 5.174,-0.2 7.761,-0.3 1.574,-0.052 3.147,-0.1 4.718,-0.184 1.571,-0.084 3.01,-0.184 4.5,-0.308 107.391,-7.862 192.165,-89.748 192.165,-189.375 V 32.168 A 32.083,32.083 0 0 0 387.4,0.153 M 211.97,354.859 c -66.674,-6.7 -96.128,-27.73 -95.3,-44.429 0.853,-17.013 26.978,-40.46 68,-47.369 3.108,-0.461 6.206,-0.959 9.384,-1.247 l 0.308,-0.031 q 7.233,-0.642 14.675,-0.645 c 79.783,0 144.7,56.406 144.7,125.731 a 109.913,109.913 0 0 1 -3.391,26.812 C 317.323,369.493 240.308,357.726 211.966,354.875 Z M 64.317,249.926 V 100.482 L 179.963,198.7 A 217.232,217.232 0 0 0 64.317,249.926 M 238.077,198.7 353.725,100.483 V 249.92 A 217.2,217.2 0 0 0 238.077,198.7 M 64.317,386.874 a 109.54,109.54 0 0 1 3.764,-28.054 c 18.188,25.684 56.735,51.929 137.452,60.043 64.014,6.447 96.678,26.47 95.848,42.908 -0.9,17.7 -29.425,43.229 -72.522,49.508 -0.456,0.052 -0.907,0.132 -1.364,0.184 -1.739,0.231 -3.538,0.389 -5.319,0.56 -4.342,0.342 -8.713,0.578 -13.153,0.578 -79.789,0 -144.705,-56.385 -144.705,-125.731 z"
             fill="url(#linear-gradient)"
             style="fill:url(#linear-gradient)" />
        </g>
      </g>
    </g>
  </g>
</svg>
